<svg width="31" height="29" fill="none" xmlns="http://www.w3.org/2000/svg"><g clip-path="url(#clip0_216_3532)" fill="#FFA800"><path d="M8.74 6.663l.63-.606 1.245 1.201-.628.606.623.6a8.146 8.146 0 014.132-1.654v-.845h-.888v-1.7h3.54v1.7h-.89v.845a8.147 8.147 0 014.134 1.654l.622-.6-.628-.606 1.246-1.201 2.503 2.413-1.246 1.201-.629-.605-.622.6a7.556 7.556 0 011.715 3.984h.877v-.856h1.763v3.412h-1.763v-.856H23.6a7.556 7.556 0 01-1.715 3.984l.622.6.629-.605 1.246 1.201-.628.606 3.11 2.998c2.363-2.561 3.8-5.936 3.8-9.634 0-8.008-6.733-14.5-15.04-14.5-3.835 0-7.335 1.385-9.992 3.664l3.11 2.999zm1.88 4.213A5.867 5.867 0 009.363 14.5c0 3.33 2.809 6.038 6.262 6.038a6.388 6.388 0 003.759-1.212l-8.764-8.45zm2.346 6.123h-1.762V15.3h1.762V17zm1.777 1.763v-1.699h1.763v1.7h-1.763z"/><path d="M20.627 18.125a5.867 5.867 0 001.256-3.625c0-3.329-2.809-6.037-6.262-6.037a6.38 6.38 0 00-3.759 1.212l8.764 8.45zm-2.351-6.18h1.762v1.699h-1.762v-1.7zm-1.773-1.707v1.7H14.74v-1.7h1.763zm6.002 12.1l-.628.605-1.246-1.201.628-.606-.623-.6a8.146 8.146 0 01-4.133 1.654v.845h.89v1.7h-3.54v-1.7h.888v-.845a8.146 8.146 0 01-4.133-1.654l-.622.6.628.606-1.246 1.201-2.503-2.413 1.246-1.201.628.606.623-.6a7.556 7.556 0 01-1.716-3.985H6.77v.857H5.007v-3.413H6.77v.857h.876a7.557 7.557 0 011.716-3.985l-.623-.6-.628.606L6.865 8.47l.628-.606-3.11-2.998C2.02 7.428.584 10.802.584 14.5c0 8.008 6.733 14.5 15.04 14.5 3.835 0 7.335-1.385 9.992-3.664l-3.11-2.998z"/></g><defs><clipPath id="clip0_216_3532"><path fill="#fff" transform="translate(.583)" d="M0 0h30.079v29H0z"/></clipPath></defs></svg>