<svg width="31" height="29" fill="none" xmlns="http://www.w3.org/2000/svg"><path d="M1.162 2.883l8.02 2.278c.25.07.48.19.68.35L12.3 7.47l2.052-2.123-3.37-2.64a.835.835 0 00-.287-.146L2.012.096a.854.854 0 00-.628.065.803.803 0 00-.398.474l-.383 1.26a.792.792 0 00.558.988zM13.296 8.268c.096.076.16.182.184.3l3.731 18.7a2.118 2.118 0 001.134 1.47c.59.298 1.29.32 1.899.061l5.58-2.377a.556.556 0 01.418-.006.528.528 0 01.296.284c.072.17.21.305.386.376.175.07.373.072.549.002l2.719-1.075a.682.682 0 00.39-.901l-5.074-11.94a.503.503 0 01.091-.535l.583-.649a.777.777 0 00-.083-1.123l-5.663-4.73a.846.846 0 00-1.166.083l-1.261 1.406a.551.551 0 01-.752.06l-2.074-1.667-2.057 2.127.17.134zm6.874 18.87a1.26 1.26 0 01-1.078-.046 1.177 1.177 0 01-.619-.853l-1.256-8.004a2.402 2.402 0 01.397-1.738l1.4 1.066c.548.413.958.974 1.176 1.611l2.417 6.926-2.437 1.038zm-.86-11.724l.806-.14c1.258-.21 2.487.492 2.9 1.657l2.577 7.383a.512.512 0 01-.292.64l-1.705.726-2.386-6.831a4.415 4.415 0 00-1.534-2.099l-1.294-.989c.284-.172.6-.29.932-.347h-.003zm-2.927-3.63l.761 3.107a.517.517 0 01-.4.621.533.533 0 01-.646-.385l-.76-3.106a.507.507 0 01.154-.496.552.552 0 01.523-.12.527.527 0 01.368.378v.001zm-1.503-3.1c.287-.071.58.096.653.373l.268 1.014a.517.517 0 01-.387.63.534.534 0 01-.653-.373l-.268-1.013a.5.5 0 01.058-.393.537.537 0 01.33-.238h-.001zM3.245 15.787a2.65 2.65 0 001.925-.732c.51-.491.784-1.163.76-1.857C5.93 12 4.19 9.333 3.244 8.279 2.298 9.332.56 12 .56 13.198c-.025.694.25 1.366.759 1.857a2.65 2.65 0 001.926.732z" fill="#FFA800"/></svg>