<svg width="31" height="29" fill="none" xmlns="http://www.w3.org/2000/svg"><path d="M23.484 17.731c-.672-.157-1.348.248-1.507.897-.16.648.256 1.3.93 1.453 3.892.89 5.303 2.208 5.303 2.877 0 1.444-4.998 3.625-12.532 3.625s-12.533-2.18-12.533-3.625c0-.67 1.413-1.986 5.303-2.877.674-.153 1.09-.805.93-1.453-.16-.65-.836-1.054-1.508-.897C3.207 18.797.639 20.653.639 22.958.639 26.924 8.206 29 15.678 29c7.473 0 15.039-2.076 15.039-6.042 0-2.305-2.568-4.161-7.233-5.227zM15.68 9.668c.691 0 1.253-.542 1.253-1.209s-.562-1.208-1.253-1.208c-.692 0-1.254.541-1.254 1.208 0 .667.562 1.209 1.254 1.209z" fill="#FFA800"/><path d="M14.047 22.515l.51.984c.213.41.647.668 1.122.668a1.26 1.26 0 001.122-.668l1.08-2.083c1.315-2.537 2.936-4.993 4.504-7.369l.714-1.084a8.191 8.191 0 001.353-4.504c0-2.407-1.07-4.708-2.933-6.312C19.657.543 17.152-.225 14.654.057c-3.9.428-7.121 3.456-7.661 7.2A8.215 8.215 0 008.61 13.46c2.125 2.777 3.784 5.867 5.436 9.054zM15.68 4.834c2.073 0 3.76 1.626 3.76 3.625 0 1.998-1.687 3.625-3.76 3.625-2.073 0-3.76-1.627-3.76-3.625 0-1.999 1.687-3.625 3.76-3.625z" fill="#FFA800"/></svg>