<svg width="23" height="23" fill="none" xmlns="http://www.w3.org/2000/svg"><path d="M20.032 4.403a11.4 11.4 0 011.34 2.254l-10.187 7.61-4.257-2.705V8.308l4.257 2.705 8.847-6.61z" fill="#21A038"/><path d="M2.583 11.332c0-.146.004-.29.011-.435l-2.58-.128a11.435 11.435 0 00.836 4.902 11.312 11.312 0 002.425 3.674l1.83-1.854a8.692 8.692 0 01-1.867-2.824 8.786 8.786 0 01-.655-3.335z" fill="url(#paint0_linear_586_271)"/><path d="M11.182 2.618c.144 0 .287.005.43.012L11.74.015a11.024 11.024 0 00-4.839.847A11.144 11.144 0 003.275 3.32l1.83 1.855A8.562 8.562 0 017.892 3.28a8.47 8.47 0 013.29-.663z" fill="url(#paint1_linear_586_271)"/><path d="M11.183 20.048c-.144 0-.287 0-.43-.011l-.129 2.614a11.016 11.016 0 004.838-.846 11.136 11.136 0 003.625-2.459l-1.827-1.854a8.568 8.568 0 01-2.787 1.892 8.472 8.472 0 01-3.29.664z" fill="url(#paint2_linear_586_271)"/><path d="M16.029 4.138l2.174-1.624A11.04 11.04 0 0011.178 0v2.617a8.477 8.477 0 014.85 1.521z" fill="url(#paint3_linear_586_271)"/><path d="M22.366 11.333c.002-.681-.057-1.36-.175-2.031L19.784 11.1v.233a8.79 8.79 0 01-.74 3.535 8.687 8.687 0 01-2.093 2.924l1.736 1.945a11.3 11.3 0 002.721-3.806 11.43 11.43 0 00.958-4.598z" fill="#21A038"/><path d="M11.184 20.049a8.485 8.485 0 01-3.488-.75 8.587 8.587 0 01-2.887-2.122l-1.918 1.759a11.16 11.16 0 003.755 2.758c1.429.643 2.975.974 4.538.972v-2.617z" fill="url(#paint4_linear_586_271)"/><path d="M5.416 4.873L3.681 2.93A11.298 11.298 0 00.96 6.734 11.432 11.432 0 000 11.332h2.583c0-1.217.252-2.421.74-3.534a8.69 8.69 0 012.093-2.925z" fill="url(#paint5_linear_586_271)"/><defs><linearGradient id="paint0_linear_586_271" x1="3.798" y1="19.018" x2=".908" y2="10.773" gradientUnits="userSpaceOnUse"><stop offset=".14" stop-color="#F1E813"/><stop offset=".3" stop-color="#E6E418"/><stop offset=".58" stop-color="#C9DA26"/><stop offset=".89" stop-color="#A2CC39"/></linearGradient><linearGradient id="paint1_linear_586_271" x1="4.012" y1="3.783" x2="11.307" y2="1.04" gradientUnits="userSpaceOnUse"><stop offset=".06" stop-color="#0FA7DF"/><stop offset=".54" stop-color="#0098F8"/><stop offset=".92" stop-color="#0290EA"/></linearGradient><linearGradient id="paint2_linear_586_271" x1="10.454" y1="21.086" x2="18.685" y2="19.251" gradientUnits="userSpaceOnUse"><stop offset=".12" stop-color="#A2CC39"/><stop offset=".28" stop-color="#86C239"/><stop offset=".87" stop-color="#219F38"/></linearGradient><linearGradient id="paint3_linear_586_271" x1="10.64" y1=".877" x2="17.685" y2="3.022" gradientUnits="userSpaceOnUse"><stop offset=".06" stop-color="#0290EA"/><stop offset=".79" stop-color="#0C89CA"/></linearGradient><linearGradient id="paint4_linear_586_271" x1="3.539" y1="18.617" x2="11.215" y2="21.448" gradientUnits="userSpaceOnUse"><stop offset=".13" stop-color="#F1E813"/><stop offset=".3" stop-color="#EAE616"/><stop offset=".53" stop-color="#D8DF1F"/><stop offset=".8" stop-color="#BAD52D"/><stop offset=".98" stop-color="#A2CC39"/></linearGradient><linearGradient id="paint5_linear_586_271" x1=".962" y1="11.649" x2="4.106" y2="3.582" gradientUnits="userSpaceOnUse"><stop offset=".07" stop-color="#A2CC39"/><stop offset=".26" stop-color="#81C45E"/><stop offset=".92" stop-color="#0FA7DF"/></linearGradient></defs></svg>