<svg width="24" height="24" fill="none" xmlns="http://www.w3.org/2000/svg"><path fill-rule="evenodd" clip-rule="evenodd" d="M13.273 0c.313 0 .614.126.835.352.222.224.346.53.346.848v7.2c0 .318-.124.624-.346.848a1.17 1.17 0 01-1.67 0 1.209 1.209 0 01-.347-.848V1.2c0-.318.125-.624.346-.848A1.17 1.17 0 0113.273 0zm3.545 2.4c.314 0 .614.126.836.352.221.224.346.53.346.848v7.2c0 .318-.125.624-.346.848a1.17 1.17 0 01-1.671 0 1.209 1.209 0 01-.347-.848V3.6c0-.318.125-.624.347-.848a1.17 1.17 0 01.835-.352zm-7.09 0c.313 0 .613.126.835.352.222.224.346.53.346.848v6c0 .318-.124.624-.346.848a1.17 1.17 0 01-1.671 0 1.208 1.208 0 01-.347-.848v-6c0-.318.125-.624.347-.848a1.17 1.17 0 01.835-.352zM6.181 4.8c.313 0 .614.126.835.352.222.224.347.53.347.848v4.8c0 .318-.125.624-.347.848a1.17 1.17 0 01-1.67 0A1.209 1.209 0 015 10.8V6c0-.318.125-.624.346-.848a1.17 1.17 0 01.836-.352z" fill="#F3C4B7"/><path opacity=".5" fill-rule="evenodd" clip-rule="evenodd" d="M15.623 7V6H18v1h-2.377zm-1.181 0h-2.364V6h2.364v1zm-5.91-1h2.364v1H8.532V6zM5 6h2.35v1H5V6z" fill="#D09889"/><path fill-rule="evenodd" clip-rule="evenodd" d="M20 13v7.249a7.686 7.686 0 01-2.714 2.748A7.158 7.158 0 0113.654 24H12.5c-1.99 0-3.897-.837-5.303-2.327C5.79 20.183 5 18.163 5 16.056v-1.223A7.91 7.91 0 015.242 13H20z" fill="#F3C4B7"/><path d="M24 7H0v12h24V7z" fill="#76A158"/><path d="M24 7H0v1h24V7z" fill="#89AF6D"/><path opacity=".7" d="M7 16a3 3 0 100-6 3 3 0 000 6z" fill="#9FD17D"/><path fill-rule="evenodd" clip-rule="evenodd" d="M20.4 19v-1.125H24V19h-3.6zm-8.23 0H0v-1.125h12c0-1.194.506-2.338 1.406-3.181a4.963 4.963 0 013.394-1.319v-2.25c0-.298.127-.585.351-.795.226-.212.53-.33.849-.33.318 0 .623.118.849.33.224.21.351.497.351.795v2.874c.447.255.847.575 1.186.95V19h-8.217z" fill="#669248"/><path fill-rule="evenodd" clip-rule="evenodd" d="M20 17.833V20h-6.597a3.72 3.72 0 01-.385-2.052c.071-.706.343-1.379.785-1.945a3.98 3.98 0 011.723-1.262 4.126 4.126 0 012.153-.208v-3.414c0-.297.122-.582.34-.791.217-.21.513-.328.82-.328.308 0 .603.117.821.328.218.21.34.494.34.79v6.715z" fill="#F3C4B7"/></svg>