<svg width="25" height="26" fill="none" xmlns="http://www.w3.org/2000/svg"><path d="M12.5 25.305c6.796 0 12.305-5.51 12.305-12.305C24.805 6.204 19.295.695 12.5.695 5.704.695.195 6.205.195 13c0 6.796 5.51 12.305 12.305 12.305z" fill="url(#paint0_linear_355_3604)"/><path d="M15.115 6.164H9.892a4.224 4.224 0 00-4.222 4.222v5.223a4.224 4.224 0 004.222 4.222h5.223a4.224 4.224 0 004.222-4.222v-5.223a4.224 4.224 0 00-4.222-4.222zm2.696 9.45a2.704 2.704 0 01-2.701 2.702H9.887a2.704 2.704 0 01-2.702-2.702v-5.223A2.704 2.704 0 019.887 7.69h5.223a2.704 2.704 0 012.701 2.701v5.223z" fill="#fff"/><path d="M12.5 9.505A3.5 3.5 0 009.007 13a3.5 3.5 0 003.495 3.494A3.5 3.5 0 0015.995 13a3.5 3.5 0 00-3.494-3.495zm0 5.617A2.124 2.124 0 0110.38 13c0-1.17.952-2.122 2.122-2.122s2.122.952 2.122 2.122-.952 2.122-2.122 2.122zm3.761-5.233a.59.59 0 10-.189-1.166.59.59 0 00.19 1.166z" fill="#fff"/><defs><linearGradient id="paint0_linear_355_3604" x1="3.131" y1="22.369" x2="20.617" y2="4.883" gradientUnits="userSpaceOnUse"><stop stop-color="#FEE411"/><stop offset=".052" stop-color="#FEDB16"/><stop offset=".138" stop-color="#FEC125"/><stop offset=".248" stop-color="#FE983D"/><stop offset=".376" stop-color="#FE5F5E"/><stop offset=".5" stop-color="#FE2181"/><stop offset="1" stop-color="#9000DC"/></linearGradient></defs></svg>