<svg width="33" height="22" fill="none" xmlns="http://www.w3.org/2000/svg"><path d="M10.227 21.281c5.649 0 10.228-4.578 10.228-10.225C20.455 5.408 15.875.83 10.227.83S0 5.408 0 11.056C0 16.703 4.579 21.28 10.227 21.28z" fill="#EB001B"/><path d="M22.5 21.281c5.65 0 10.228-4.578 10.228-10.225C32.728 5.408 28.149.83 22.501.83c-5.649 0-10.228 4.578-10.228 10.226 0 5.647 4.58 10.225 10.228 10.225z" fill="#F79E1B"/><path fill-rule="evenodd" clip-rule="evenodd" d="M12.273 10.374a10.23 10.23 0 014.091-8.18 10.211 10.211 0 014.091 8.18 10.229 10.229 0 01-4.09 8.18 10.214 10.214 0 01-4.092-8.18z" fill="#FF5F00"/></svg>