<svg width="31" height="29" fill="none" xmlns="http://www.w3.org/2000/svg"><g clip-path="url(#clip0_216_3540)" fill="#FFA800"><path d="M15.59 16.355c2.075 0 6.954-2.408 6.954-8.177 0-.805-.02-1.583-.09-2.317-.112-1.446-.42-2.727-1.184-3.71C20.289.817 18.573 0 15.59 0c-2.985 0-4.7.816-5.681 2.152-.765.981-1.072 2.262-1.185 3.707a25.04 25.04 0 00-.09 2.319c0 5.77 4.88 8.177 6.955 8.177zm2.27-13.36l-.507 1.235c-1.309-.357-2.219-.357-3.527 0l-.507-1.234c1.636-.478 2.904-.478 4.54 0zM9.67 6.927c.08.169.42.82.947.88.605.07 1.61-2.068 4.972-2.073 3.362.005 4.367 2.143 4.973 2.073.527-.06.867-.711.947-.88.016.414.022.834.022 1.252 0 2.82-1.291 4.567-2.375 5.537-1.365 1.221-2.881 1.664-3.567 1.664-.686 0-2.201-.443-3.567-1.664-1.083-.97-2.375-2.717-2.375-5.537 0-.418.006-.838.022-1.252z"/><path d="M28.503 24.742c-.355-2.128-1.086-4.87-2.552-5.845-1-.665-4.494-2.464-5.985-3.232l-.026-.014a.502.502 0 00-.53.045 6.437 6.437 0 01-2.545 1.185.483.483 0 00-.35.292l-.923 2.346-.923-2.346a.482.482 0 00-.35-.292 6.437 6.437 0 01-2.544-1.185.502.502 0 00-.53-.045c-1.474.76-5.01 2.595-6.007 3.244-1.688 1.096-2.426 5.063-2.557 5.847a.455.455 0 00.022.232c.06.164 1.61 4.026 12.89 4.026 11.28 0 12.828-3.862 12.889-4.026a.456.456 0 00.021-.232zm-5.959-1.74l-1.088 2.316a.108.108 0 01-.115.06.106.106 0 01-.09-.09l-.201-1.532h-.501a.11.11 0 01-.077-.031.101.101 0 01-.03-.074l.023-2.316c0-.057.049-.103.108-.103h1.697a.11.11 0 01.087.042.1.1 0 01.017.092l-.475 1.488h.547a.11.11 0 01.09.048.1.1 0 01.008.1z"/></g><defs><clipPath id="clip0_216_3540"><path fill="#fff" transform="translate(.552)" d="M0 0h30.079v29H0z"/></clipPath></defs></svg>