<svg width="25" height="25" fill="none" xmlns="http://www.w3.org/2000/svg"><path d="M12.5 24.4c6.627 0 12-5.373 12-12 0-6.628-5.373-12-12-12s-12 5.372-12 12c0 6.627 5.373 12 12 12z" fill="#6F3FAA"/><path d="M19.431 8.507v-.018c-.16-.652-.58-1.325-1.132-1.892-.643-.666-1.463-1.188-2.246-1.357h-.016a18.774 18.774 0 00-7.066 0h-.017c-1.453.315-3.031 1.834-3.383 3.25v.017a13.848 13.848 0 000 5.958v.016c.25 1.01 1.124 2.07 2.13 2.711.329.214.686.38 1.062.492v1.58a.635.635 0 001.091.44l1.601-1.664a18.836 18.836 0 004.575-.305h.017c1.449-.317 3.028-1.836 3.377-3.251v-.017a13.85 13.85 0 00.007-5.96zm-1.267 5.666c-.234.923-1.432 2.073-2.385 2.284-1.238.237-2.498.34-3.758.307a.08.08 0 00-.065.027l-1.17 1.2-1.243 1.275a.144.144 0 01-.25-.1v-2.618a.09.09 0 00-.073-.088 2.307 2.307 0 01-.57-.218c-.81-.433-1.627-1.32-1.815-2.07a12.545 12.545 0 010-5.384c.233-.92 1.437-2.066 2.384-2.279a17.455 17.455 0 016.56 0c.525.118 1.125.517 1.594 1.008.386.4.682.86.791 1.275.39 1.773.39 3.608 0 5.38z" fill="#fff"/><path d="M15.813 14.31a2.024 2.024 0 01-.867.954 2.082 2.082 0 01-.375.119c-.146-.044-.285-.074-.41-.127a10.344 10.344 0 01-2.85-1.676 7.18 7.18 0 01-.712-.7 9.248 9.248 0 01-1.364-2.08c-.175-.357-.322-.725-.472-1.092-.136-.334.066-.681.273-.93.203-.232.452-.418.732-.546a.472.472 0 01.588.136c.348.391.655.818.916 1.272a.606.606 0 01-.17.819 2.017 2.017 0 00-.195.155.614.614 0 00-.147.155.427.427 0 00-.033.378c.263.724.663 1.328 1.26 1.752.202.143.42.263.649.356a.98.98 0 00.488.12c.297-.035.396-.364.603-.533a.571.571 0 01.682-.031c.22.136.433.29.646.44.21.144.413.299.607.464a.48.48 0 01.151.594zm-2.921-6.535h-.175c.056-.003.115 0 .175 0z" fill="#fff"/><path d="M15.91 11.862c-.137 0-.204-.116-.213-.243-.018-.25-.032-.5-.066-.749a3.137 3.137 0 00-2.528-2.622c-.196-.035-.397-.044-.594-.064-.126-.014-.29-.022-.318-.177a.213.213 0 01.123-.224.214.214 0 01.088-.02A3.625 3.625 0 0115.5 9.4c.258.403.434.852.516 1.323.052.294.07.597.094.897a.21.21 0 01-.2.243z" fill="#fff"/><path d="M15.17 11.225c0 .04-.005.08-.015.12a.2.2 0 01-.377.02.588.588 0 01-.02-.17 2.196 2.196 0 00-.178-.887 1.985 1.985 0 00-.924-.961c-.21-.1-.433-.168-.663-.205-.1-.016-.202-.026-.303-.04a.192.192 0 01-.18-.213.19.19 0 01.21-.189c.4.016.793.118 1.15.3.436.22.791.571 1.016 1.004.126.253.211.525.25.805a.812.812 0 01.017.11c.007.082.01.164.016.265l.002.04z" fill="#fff"/><path d="M14.237 11.037a.177.177 0 01-.144.136h-.03a.206.206 0 01-.208-.136.274.274 0 01-.016-.07 1.932 1.932 0 00-.04-.273.792.792 0 00-.293-.456.772.772 0 00-.236-.115c-.107-.031-.22-.023-.327-.049a.202.202 0 01-.163-.233.211.211 0 01.222-.17c.624.046 1.09.346 1.21 1.015.013.062.022.125.027.188a.548.548 0 01-.002.163z" fill="#fff"/></svg>