<svg width="37" height="12" fill="none" xmlns="http://www.w3.org/2000/svg"><path fill-rule="evenodd" clip-rule="evenodd" d="M33.976 11.805s-.266-1.621-.355-2.028H29.78c-.106.318-.637 2.028-.637 2.028h-3.134l4.445-10.599A1.468 1.468 0 0132.01.234h2.32l2.425 11.571h-2.78zm-1.54-7.456l-.214-.99c-.14.443-.407 1.132-.389 1.114 0 0-.956 2.561-1.186 3.232h2.479c-.122-.585-.69-3.356-.69-3.356zM25.99 2.902a5.02 5.02 0 00-2.23-.442c-1.187 0-1.719.495-1.737.989 0 .548.639.9 1.7 1.43 1.718.816 2.514 1.82 2.497 3.143-.018 2.385-2.054 3.938-5.206 3.938a9.129 9.129 0 01-3.33-.617l.407-2.596.408.194c.87.428 1.829.64 2.797.618.868 0 1.788-.353 1.807-1.13 0-.512-.39-.884-1.559-1.448-1.133-.548-2.638-1.466-2.62-3.126C18.94 1.612 21.013.04 23.97.04a7.594 7.594 0 012.692.475l-.408 2.508-.264-.121zm-13.173 8.903L14.693.235h2.99l-1.875 11.57h-2.991zm-7.205 0L2.944 1.767c-.091-.053-.187-.1-.28-.152H4.45l.66.467L6.32 3.93l.514 1.42.23 1.172.32 1.59L10.322.233h3.17l-4.71 11.571H5.613z" fill="#1732D5"/><path fill-rule="evenodd" clip-rule="evenodd" d="M4.254 3.116a6.835 6.835 0 00-1.151-.732l-.17-.642A11.992 11.992 0 00.243.61V.252h4.597a1.205 1.205 0 011.175.951l.996 5.066a12.538 12.538 0 00-2.758-3.153z" fill="#1732D5"/></svg>