<svg width="25" height="25" fill="none" xmlns="http://www.w3.org/2000/svg"><path d="M12.5 24.4c6.627 0 12-5.373 12-12 0-6.628-5.373-12-12-12s-12 5.372-12 12c0 6.627 5.373 12 12 12z" fill="#29A71A"/><path d="M17.79 7.109a7.441 7.441 0 00-11.92 8.609l-.79 3.833a.284.284 0 00.045.222.288.288 0 00.305.119l3.757-.89A7.44 7.44 0 0017.79 7.108zm-1.171 9.35a5.828 5.828 0 01-6.712 1.09l-.524-.259-2.303.545.007-.028.477-2.318-.256-.506a5.826 5.826 0 119.31 1.475z" fill="#fff"/><path d="M16.415 14.758c-.282.444-.728.988-1.289 1.123-.981.238-2.488.008-4.363-1.74l-.024-.02c-1.648-1.529-2.076-2.801-1.973-3.81.058-.573.535-1.091.937-1.43a.536.536 0 01.839.193l.607 1.364a.532.532 0 01-.067.545l-.307.398a.528.528 0 00-.048.59c.172.3.584.744 1.04 1.154.513.464 1.082.888 1.442 1.033a.52.52 0 00.571-.12l.356-.359a.545.545 0 01.532-.136l1.442.409a.545.545 0 01.305.806z" fill="#fff"/></svg>