<svg width="31" height="30" fill="none" xmlns="http://www.w3.org/2000/svg"><g clip-path="url(#clip0_216_3566)" fill="#FFA800"><path d="M17.407 15.816h.763v-.96l-.763.96z"/><path d="M26.25 5.084C23.41 2.346 19.634.837 15.617.837S7.822 2.346 4.982 5.084C2.142 7.822.577 11.464.577 15.336c0 3.873 1.564 7.513 4.405 10.252 2.84 2.738 6.617 4.246 10.634 4.246s7.794-1.508 10.635-4.246c2.84-2.739 4.405-6.38 4.405-10.252 0-3.873-1.565-7.514-4.405-10.252zm-5.957 10.732v1.36h-.73v.992h-1.576v-.992h-2.133v-1.36l2.63-3.232h1.08v3.232h.73zm-4.677 9.431c-5.669 0-10.28-4.446-10.28-9.911s4.611-9.911 10.28-9.911V3.872l3.139 2.402-3.139 2.403V7.124c-4.697 0-8.518 3.684-8.518 8.212s3.821 8.212 8.518 8.212c4.697 0 8.519-3.684 8.519-8.212h1.762c0 5.465-4.612 9.911-10.28 9.911zm-2.21-11.335a.613.613 0 00-.365-.096c-.182 0-.355.045-.518.136-.164.09-.334.237-.51.44l-.996-1.128c.104-.112.24-.214.406-.308.166-.093.35-.173.552-.24a4.255 4.255 0 011.34-.212c.636 0 1.119.127 1.448.38.329.253.494.607.494 1.06 0 .165-.022.312-.067.44a1.349 1.349 0 01-.448.632 3.682 3.682 0 01-.332.24c-.138.09-.283.177-.435.26a5.4 5.4 0 00-.453.276h1.826v1.36h-4.373c0-.267.022-.501.066-.704.045-.203.117-.385.216-.548.1-.163.228-.308.386-.436s.353-.253.585-.376c.299-.155.535-.279.71-.372a5.15 5.15 0 00.394-.228.594.594 0 00.17-.148.244.244 0 00.037-.132c0-.133-.044-.232-.133-.296z"/></g><defs><clipPath id="clip0_216_3566"><path fill="#fff" transform="translate(.577 .837)" d="M0 0h30.079v28.997H0z"/></clipPath></defs></svg>